<?xml version="1.0" standalone="no"?>
<!DOCTYPE svg PUBLIC "-//W3C//DTD SVG 1.1//EN" "http://www.w3.org/Graphics/SVG/1.1/DTD/svg11.dtd">
<svg t="1691839633652" class="icon" viewBox="0 0 1024 1024" version="1.1" xmlns="http://www.w3.org/2000/svg" p-id="2330" xmlns:xlink="http://www.w3.org/1999/xlink" width="200" height="200">
  <path d="M639.125 512l217.96875-217.96875c14.4375-14.4375 14.4375-40.03125 0-54.46875l-72.65625-72.65625c-14.4375-14.4375-40.125-14.4375-54.46875 0L512 384.78125 294.03125 166.8125c-14.4375-14.4375-40.125-14.4375-54.46875 0l-72.65625 72.65625c-14.4375 14.4375-14.4375 40.125 0 54.46875L384.78125 512 166.8125 729.96875c-14.4375 14.4375-14.4375 40.125 0 54.46875l72.65625 72.65625c14.4375 14.4375 40.125 14.4375 54.46875 0L512 639.125l217.96875 217.96875c14.4375 14.4375 40.125 14.4375 54.46875 0l72.65625-72.65625c14.4375-14.4375 14.4375-40.03125 0-54.46875L639.125 512z" fill="#ffffff" p-id="2331"></path>
</svg>