<?xml version="1.0" standalone="no"?>
<!DOCTYPE svg PUBLIC "-//W3C//DTD SVG 1.1//EN" "http://www.w3.org/Graphics/SVG/1.1/DTD/svg11.dtd">
<svg t="1692888751774" class="icon" viewBox="0 0 1024 1024" version="1.1" xmlns="http://www.w3.org/2000/svg" p-id="3435" width="200" height="200">
  <path d="M169.444811 740.975033c-4.473054 4.473762-4.897693 11.303404-0.945964 15.255133l99.271341 99.270633c3.951375 3.951375 10.781371 3.528152 15.254779-0.944548L854.555189 283.025321c4.474116-4.474116 4.897339-11.304112 0.945964-15.255133l-99.271341-99.270987c-3.951375-3.951729-10.780308-3.528152-15.255133 0.945964L169.444811 740.975033z" fill="#ffffff" p-id="3436"></path>
  <path d="M283.024967 169.444457c-4.473762-4.473054-11.303404-4.897693-15.255133-0.945964l-99.270633 99.271341c-3.951375 3.951375-3.528152 10.781371 0.944548 15.254779L740.974679 854.555189c4.474116 4.474116 11.304466 4.897339 15.255133 0.945964l99.271341-99.271341c3.951375-3.951375 3.527798-10.780308-0.946318-15.255133L283.024967 169.444457z" fill="#ffffff" p-id="3437"></path>
</svg>