<?xml version="1.0" standalone="no"?>
<!DOCTYPE svg PUBLIC "-//W3C//DTD SVG 1.1//EN" "http://www.w3.org/Graphics/SVG/1.1/DTD/svg11.dtd">
<svg t="1691817127164" class="icon" viewBox="0 0 1024 1024" version="1.1" xmlns="http://www.w3.org/2000/svg" p-id="2048" xmlns:xlink="http://www.w3.org/1999/xlink" width="200" height="200">
  <path d="M733.866667 896H290.133333C200.533333 896 128 823.466667 128 733.866667V290.133333C128 200.533333 200.533333 128 290.133333 128h226.133334c17.066667 0 34.133333 12.8 34.133333 34.133333s-12.8 34.133333-34.133333 34.133334H290.133333c-55.466667 0-98.133333 42.666667-98.133333 98.133333v443.733333c0 55.466667 42.666667 98.133333 98.133333 98.133334h443.733334c55.466667 0 98.133333-42.666667 98.133333-98.133334v-209.066666c0-17.066667 12.8-34.133333 34.133333-34.133334 17.066667 0 34.133333 12.8 34.133334 34.133334v209.066666c-4.266667 85.333333-76.8 157.866667-166.4 157.866667z" fill="#ffffff" p-id="2049"></path>
  <path d="M490.666667 588.8c-8.533333 0-17.066667-4.266667-21.333334-8.533333-12.8-12.8-12.8-34.133333 0-46.933334l371.2-371.2c12.8-12.8 34.133333-12.8 46.933334 0 12.8 12.8 12.8 34.133333 0 46.933334L512 580.266667c-4.266667 4.266667-12.8 8.533333-21.333333 8.533333z" fill="#ffffff" p-id="2050"></path>
</svg>