<?xml version="1.0" standalone="no"?>
<!DOCTYPE svg PUBLIC "-//W3C//DTD SVG 1.1//EN" "http://www.w3.org/Graphics/SVG/1.1/DTD/svg11.dtd">
<svg t="1691839639422" class="icon" viewBox="0 0 1024 1024" version="1.1" xmlns="http://www.w3.org/2000/svg" p-id="2484" xmlns:xlink="http://www.w3.org/1999/xlink" width="200" height="200">
  <path d="M707.511152 159.79115l-469.155747 0c-43.000307 0-78.224518 35.158719-78.224518 78.175399l0 547.321936c0 43.065798 35.224211 78.223494 78.224518 78.223494l547.330123 0c42.957328 0 78.181539-35.157696 78.181539-78.223494l0-469.156771L707.511152 159.79115zM512.003582 785.289508c-66.499487 0-117.299426-50.742634-117.299426-117.283053 0-66.441158 50.799939-117.299426 117.299426-117.299426 66.484137 0 117.28203 50.858267 117.28203 117.299426C629.286634 734.546875 578.487719 785.289508 512.003582 785.289508M629.286634 394.357255l-390.980348 0 0-156.390707 390.980348 0L629.286634 394.357255z" fill="#ffffff" p-id="2485"></path>
</svg>