<?xml version="1.0" standalone="no"?>
<!DOCTYPE svg PUBLIC "-//W3C//DTD SVG 1.1//EN" "http://www.w3.org/Graphics/SVG/1.1/DTD/svg11.dtd">
<svg t="1691816630559" class="icon" viewBox="0 0 1024 1024" version="1.1" xmlns="http://www.w3.org/2000/svg" p-id="1567" xmlns:xlink="http://www.w3.org/1999/xlink" width="200" height="200">
  <path fill="#ffffff" d="M719.984 680.563c-20.436 0-38.611-8.925-51.498-22.668l-87.032-95.687v286.624c0 37.853-31.018 68.509-69.258 68.509-38.239 0-69.262-30.656-69.262-68.509V562.208l-87.249 95.495c-12.66 13.932-30.83 22.856-51.271 22.856-38.244 0-69.262-30.684-69.262-68.512 0-17.615 6.916-33.513 17.764-45.823l208-228.2c12.665-13.9 30.835-22.839 51.28-22.839 20.441 0 38.612 8.939 51.493 22.689l207.57 228.514c11.061 12.146 17.987 28.044 17.987 45.666 0 37.821-31.028 68.509-69.262 68.509z m-12.297-436.889H318.489c-38.235 0-69.263-30.681-69.263-68.519 0-37.828 31.028-68.494 69.263-68.494h389.198c38.234 0 69.262 30.666 69.262 68.494 0 37.838-31.028 68.519-69.262 68.519z" p-id="1568"></path>
</svg>