<?xml version="1.0" standalone="no"?>
<!DOCTYPE svg PUBLIC "-//W3C//DTD SVG 1.1//EN" "http://www.w3.org/Graphics/SVG/1.1/DTD/svg11.dtd">
<svg width="456" height="456" xmlns="http://www.w3.org/2000/svg" p-id="11985" version="1.1" class="icon" t="1683532765270">
  <g>
    <title>Layer 1</title>
    <path stroke="null" id="svg_1" p-id="11986" fill="#242C3B" d="m301.40215,173.28094c-5.71588,-31.50702 -33.17996,-55.48581 -66.35992,-55.48581c-26.06997,0 -49.90935,15.05645 -61.06228,38.75642c-30.1129,-1.11529 -55.20699,22.44527 -56.32228,52.55817c-1.11529,30.1129 22.44527,55.20699 52.55817,56.32228l9.75881,0l7.94646,-28.57937l-19.2388,-17.70527l80.85872,-55.90405l-51.86111,174.96154l83.22872,-54.23111l-20.77233,-18.68115l31.64643,0.13941l1.81235,0c25.65173,-0.97588 45.727,-22.58468 44.75112,-48.23641c-0.69706,-21.46939 -16.03233,-39.59289 -36.94407,-43.91465l0,-0.00001z"/>
  </g>
</svg>